<svg width="35" height="29" viewBox="0 0 35 29" fill="none" xmlns="http://www.w3.org/2000/svg">
<path d="M18.1256 7.00707L18.2148 7.03262L18.2218 7.02505C18.4557 7.04644 18.6841 6.9077 18.7558 6.67566C19.3184 4.86201 21.0942 3.58867 23.0787 3.58867C23.3535 3.58867 23.5871 3.3733 23.5871 3.09482C23.5871 2.81633 23.3535 2.60098 23.0787 2.60098C20.5725 2.60098 18.4612 4.20222 17.7824 6.39083C17.6994 6.65813 17.86 6.9311 18.1256 7.00707Z" fill="#483EA8" stroke="#F9FFF9" stroke-width="0.3"/>
<path d="M28.0954 19.9431H25.9451C25.7473 19.9431 25.5867 19.7891 25.5867 19.5993C25.5867 19.4094 25.7472 19.2554 25.9451 19.2554H28.0954C31.0594 19.2554 33.471 16.9416 33.471 14.0978C33.471 11.254 31.0594 8.94018 28.0954 8.94018H28.0437C27.9397 8.94018 27.8409 8.89695 27.7728 8.82155C27.7047 8.74615 27.674 8.64619 27.6889 8.54746C27.7209 8.3333 27.737 8.11815 27.737 7.90866C27.737 5.44406 25.6468 3.4387 23.0781 3.4387C22.0787 3.4387 21.1257 3.73833 20.3218 4.30542C20.1452 4.42994 19.8943 4.37468 19.7922 4.18826C17.5157 0.0292735 11.5699 -0.529236 8.48725 3.08872C7.18866 4.61291 6.67843 6.59564 7.08728 8.52808C7.13234 8.7415 6.9621 8.94044 6.73607 8.94044H6.59246C3.62844 8.94044 1.21679 11.2543 1.21679 14.0981C1.21679 16.9418 3.62844 19.2557 6.59246 19.2557H8.7427C8.94058 19.2557 9.10109 19.4097 9.10109 19.5995C9.10109 19.7894 8.94058 19.9434 8.7427 19.9434H6.59246C3.23315 19.9434 0.5 17.3211 0.5 14.098C0.5 10.9654 3.08184 8.40033 6.31113 8.25886C6.00779 6.254 6.58785 4.23172 7.93227 2.65352C11.2327 -1.22033 17.5576 -0.786127 20.2313 3.5335C21.0843 3.02044 22.0603 2.75129 23.0779 2.75129C26.1902 2.75129 28.6564 5.29278 28.4406 8.26207C31.6401 8.43424 34.1877 10.9858 34.1877 14.0978C34.1877 17.3211 31.4545 19.9431 28.0952 19.9431L28.0954 19.9431Z" fill="#483EA8"/>
<path d="M8.18643 19.4051C8.18643 24.2337 12.2788 28.1512 17.296 28.1512C22.3133 28.1512 26.4055 24.2336 26.4055 19.4051C26.4055 14.5765 22.3133 10.659 17.296 10.659C12.2787 10.659 8.18643 14.5766 8.18643 19.4051ZM9.20335 19.4051C9.20335 15.1332 12.8279 11.6468 17.296 11.6468C21.764 11.6468 25.3886 15.1331 25.3886 19.4051C25.3886 23.677 21.764 27.1634 17.296 27.1634C12.828 27.1634 9.20335 23.6771 9.20335 19.4051Z" fill="#483EA8" stroke="#F9FFF9" stroke-width="0.3"/>
<path d="M17.0473 22.8656C17.0473 23.0933 17.2378 23.2674 17.4596 23.2674C17.6814 23.2674 17.872 23.0935 17.872 22.8656V16.3206C17.872 16.0929 17.6814 15.9188 17.4596 15.9188C17.2378 15.9188 17.0473 16.093 17.0473 16.3206V22.8656Z" fill="#483EA8" stroke="#483EA8" stroke-width="0.3"/>
<path d="M19.744 18.1571L19.8479 18.0488C20.0119 18.2061 20.0119 18.4637 19.8481 18.6211C19.848 18.6212 19.848 18.6212 19.8479 18.6213L19.744 18.1571ZM19.744 18.1571L19.8479 18.0488L17.7489 16.035C17.5885 15.881 17.3306 15.8809 17.1702 16.035M19.744 18.1571L17.1702 16.035M17.1702 16.035C17.1701 16.035 17.1701 16.035 17.1701 16.035M17.1702 16.035L17.1701 16.035M17.1701 16.035C17.1701 16.035 17.1701 16.0351 17.1701 16.0351L17.1701 16.035ZM19.2691 18.6213C19.35 18.6989 19.4552 18.7368 19.5585 18.7368L15.5461 18.5131L15.6499 18.6213L15.65 18.6212L17.4595 16.8851L19.2691 18.6213Z" fill="#483EA8" stroke="#483EA8" stroke-width="0.3"/>
</svg>
