<svg width="28" height="28" viewBox="0 0 28 28" fill="none" xmlns="http://www.w3.org/2000/svg">
<path fill-rule="evenodd" clip-rule="evenodd" d="M20.5512 1.81573C20.2869 1.39337 19.8975 1.06393 19.4371 0.873264C18.9768 0.682603 18.4685 0.640206 17.9829 0.751978L14.5367 1.54356C14.1836 1.62473 13.8166 1.62473 13.4634 1.54356L10.0172 0.751978C9.53169 0.640206 9.02336 0.682603 8.56302 0.873264C8.10269 1.06393 7.71325 1.39337 7.44891 1.81573L5.57058 4.81339C5.37891 5.12006 5.12016 5.37881 4.8135 5.57239L1.81583 7.45073C1.3942 7.71483 1.06524 8.10364 0.874621 8.56319C0.684 9.02274 0.641172 9.53023 0.752081 10.0152L1.54366 13.4652C1.62454 13.8178 1.62454 14.1841 1.54366 14.5366L0.752081 17.9847C0.640741 18.47 0.683354 18.9779 0.873995 19.4379C1.06464 19.8978 1.39383 20.2869 1.81583 20.5511L4.8135 22.4295C5.12016 22.6211 5.37891 22.8799 5.5725 23.1866L7.45083 26.1842C7.99133 27.0486 9.0225 27.4761 10.0172 27.248L13.4634 26.4564C13.8166 26.3752 14.1836 26.3752 14.5367 26.4564L17.9848 27.248C18.4701 27.3593 18.978 27.3167 19.438 27.1261C19.8979 26.9354 20.287 26.6062 20.5512 26.1842L22.4296 23.1866C22.6213 22.8799 22.88 22.6211 23.1867 22.4295L26.1862 20.5511C26.6083 20.2865 26.9373 19.897 27.1276 19.4367C27.3179 18.9764 27.36 18.4682 27.2481 17.9828L26.4584 14.5366C26.3772 14.1835 26.3772 13.8165 26.4584 13.4633L27.25 10.0152C27.3615 9.53015 27.3192 9.02238 27.1289 8.56246C26.9386 8.10253 26.6098 7.71329 26.1882 7.44881L23.1886 5.57048C22.8823 5.37846 22.6235 5.11964 22.4315 4.81339L20.5512 1.81573ZM19.5872 9.72581C19.7057 9.50782 19.7351 9.25235 19.6691 9.01314C19.6031 8.77394 19.4469 8.56965 19.2334 8.44326C19.0198 8.31687 18.7656 8.27824 18.5242 8.33549C18.2827 8.39275 18.0729 8.54142 17.9388 8.75023L12.9267 17.2334L9.90033 14.3354C9.81055 14.2432 9.70312 14.17 9.58445 14.1203C9.46578 14.0705 9.3383 14.0451 9.20961 14.0457C9.08093 14.0463 8.95368 14.0727 8.83544 14.1235C8.71721 14.1743 8.61042 14.2484 8.52145 14.3414C8.43247 14.4344 8.36313 14.5443 8.31756 14.6647C8.27199 14.785 8.25112 14.9133 8.25621 15.0419C8.26129 15.1705 8.29222 15.2967 8.34714 15.4131C8.40207 15.5295 8.47988 15.6336 8.57591 15.7192L12.4744 19.4548C12.5788 19.5546 12.7043 19.6295 12.8416 19.6739C12.979 19.7184 13.1246 19.7312 13.2676 19.7115C13.4106 19.6918 13.5473 19.64 13.6675 19.5601C13.7877 19.4801 13.8883 19.374 13.9617 19.2497L19.5872 9.72581Z" fill="#04a604"/>
</svg>
