<svg width="24" height="24" viewBox="0 0 24 24" fill="none" xmlns="http://www.w3.org/2000/svg">
<path d="M14.9801 7.01615C14.9801 7.01615 15.4801 7.51615 15.9801 8.51615C15.9801 8.51615 17.5691 6.01615 18.9801 5.51615M9.99511 2.02115C7.49611 1.91615 5.56611 2.20315 5.56611 2.20315C4.34711 2.29115 2.01111 2.97315 2.01111 6.96515C2.01111 10.9211 1.98611 15.7991 2.01111 17.7441C2.01111 18.9321 2.74711 21.7041 5.29311 21.8521C8.38811 22.0321 13.9631 22.0711 16.5211 21.8521C17.2051 21.8131 19.4851 21.2761 19.7731 18.7961C20.0721 16.2261 20.0131 14.4411 20.0131 14.0161" stroke="white" stroke-width="1.5" stroke-linecap="round" stroke-linejoin="round"/>
<path d="M6.98022 13.0166H10.9802M6.98022 17.0166H14.9802M22.0002 7.0166C22.0002 9.7776 19.7602 12.0166 16.9952 12.0166C16.3382 12.0173 15.6875 11.8884 15.0803 11.6374C14.4731 11.3865 13.9213 11.0183 13.4565 10.5539C12.9916 10.0895 12.6229 9.53813 12.3713 8.93118C12.1197 8.32422 11.9902 7.67363 11.9902 7.0166C11.9902 4.2546 14.2312 2.0166 16.9952 2.0166C17.6523 2.01595 18.303 2.14479 18.9102 2.39577C19.5174 2.64675 20.0692 3.01494 20.534 3.4793C20.9988 3.94366 21.3676 4.49508 21.6191 5.10203C21.8707 5.70899 22.0002 6.35957 22.0002 7.0166Z" stroke="white" stroke-width="1.5" stroke-linecap="round" stroke-linejoin="round"/>
</svg>
