<svg width="17" height="16" viewBox="0 0 17 16" fill="none" xmlns="http://www.w3.org/2000/svg">
<path d="M8.18975 0C6.61478 0 5.07518 0.469192 3.76564 1.34824C2.4561 2.22729 1.43544 3.47672 0.832727 4.93853C0.230013 6.40034 0.0723152 8.00887 0.379576 9.56072C0.686838 11.1126 1.44526 12.538 2.55893 13.6569C3.6726 14.7757 5.0915 15.5376 6.63621 15.8463C8.18092 16.155 9.78205 15.9965 11.2371 15.391C12.6922 14.7855 13.9359 13.7602 14.8109 12.4446C15.6859 11.129 16.1529 9.58225 16.1529 8C16.1489 5.87952 15.3086 3.84705 13.8161 2.34764C12.3236 0.848226 10.3005 0.00406613 8.18975 0ZM4.51443 8.92307C4.33271 8.92307 4.15506 8.86894 4.00396 8.76751C3.85286 8.66608 3.73509 8.52191 3.66555 8.35324C3.596 8.18457 3.57781 7.99897 3.61326 7.81991C3.64871 7.64085 3.73622 7.47638 3.86472 7.34728C3.99322 7.21819 4.15694 7.13027 4.33518 7.09466C4.51341 7.05904 4.69816 7.07732 4.86605 7.14719C5.03395 7.21705 5.17745 7.33537 5.27841 7.48716C5.37937 7.63896 5.43326 7.81743 5.43326 8C5.43326 8.24481 5.33646 8.4796 5.16414 8.65271C4.99183 8.82582 4.75812 8.92307 4.51443 8.92307ZM8.18975 8.92307C8.00802 8.92307 7.83038 8.86894 7.67928 8.76751C7.52817 8.66608 7.41041 8.52191 7.34086 8.35324C7.27132 8.18457 7.25312 7.99897 7.28858 7.81991C7.32403 7.64085 7.41154 7.47638 7.54004 7.34728C7.66854 7.21819 7.83226 7.13027 8.01049 7.09466C8.18873 7.05904 8.37348 7.07732 8.54137 7.14719C8.70926 7.21705 8.85276 7.33537 8.95373 7.48716C9.05469 7.63896 9.10858 7.81743 9.10858 8C9.10858 8.24481 9.01177 8.4796 8.83946 8.65271C8.66714 8.82582 8.43344 8.92307 8.18975 8.92307ZM11.8651 8.92307C11.6833 8.92307 11.5057 8.86894 11.3546 8.76751C11.2035 8.66608 11.0857 8.52191 11.0162 8.35324C10.9466 8.18457 10.9284 7.99897 10.9639 7.81991C10.9993 7.64085 11.0869 7.47638 11.2154 7.34728C11.3439 7.21819 11.5076 7.13027 11.6858 7.09466C11.864 7.05904 12.0488 7.07732 12.2167 7.14719C12.3846 7.21705 12.5281 7.33537 12.629 7.48716C12.73 7.63896 12.7839 7.81743 12.7839 8C12.7839 8.24481 12.6871 8.4796 12.5148 8.65271C12.3425 8.82582 12.1088 8.92307 11.8651 8.92307Z" fill="#086CD9"/>
</svg>
