<svg width="17" height="16" viewBox="0 0 17 16" fill="none" xmlns="http://www.w3.org/2000/svg">
<path d="M12.184 0.888672C11.4972 0.888672 10.8198 1.04932 10.2056 1.35788C9.59126 1.66645 9.05691 2.11447 8.64483 2.66645C8.08771 1.9202 7.31101 1.36897 6.42472 1.09083C5.53844 0.8127 4.58751 0.821765 3.70664 1.11675C2.82577 1.41173 2.05962 1.97767 1.5167 2.7344C0.973789 3.49114 0.681641 4.40031 0.681641 5.33312C0.681641 10.659 8.04759 14.859 8.35727 15.0368C8.44501 15.0864 8.54417 15.1119 8.64483 15.1109C8.74556 15.1126 8.8449 15.087 8.93238 15.0368C10.2889 14.2402 11.5611 13.307 12.7296 12.2516C15.3029 9.92571 16.608 7.59978 16.608 5.33312C16.608 4.15438 16.1419 3.02391 15.3123 2.19042C14.4826 1.35692 13.3573 0.888672 12.184 0.888672Z" fill="#05C168"/>
</svg>
