<svg version="1.2" xmlns="http://www.w3.org/2000/svg" viewBox="0 0 484 470" width="484" height="470">
	<title>Full Logo - Portrait-2</title>
	<defs>
		<clipPath clipPathUnits="userSpaceOnUse" id="cp1">
			<path d="m-143-105h750v750h-750z"/>
		</clipPath>
		<clipPath clipPathUnits="userSpaceOnUse" id="cp2">
			<path d="m236.03 9.48h131.73v315h-131.73z"/>
		</clipPath>
	</defs>
	<style>
		tspan { white-space:pre } 
		.t0 { font-size: 88px;fill: #000000;font-weight: 700;font-family: "LeagueSpartan-Bold", "League Spartan" } 
		.t1 { font-size: 88px;fill: #f10a0a;font-weight: 700;font-family: "LeagueSpartan-Bold", "League Spartan" } 
		.t2 { font-size: 88px;fill: #fd0707;font-weight: 700;font-family: "LeagueSpartan-Bold", "League Spartan" } 
		.s3 { fill: #000000 } 
		.s4 { fill: #fc0d0d } 
		.s5 { fill: #ffffff } 
	</style>
	<g id="Page 1" clip-path="url(#cp1)">
		<text id="BacChecker." style="transform: matrix(1,0,0,1,7.721,429.601)" >
			<tspan x="0" y="0" class="t0">B</tspan><tspan  y="0" class="t0">a</tspan><tspan  y="0" class="t0">c</tspan><tspan  y="0" class="t1">C</tspan><tspan  y="0" class="t0">hecker</tspan><tspan  y="0" class="t2">.</tspan><tspan  y="0" class="t2">
</tspan>
		</text>
		<path id="Path 5" fill-rule="evenodd" class="s3" d="m367.6 64.5c0.2 37.8-1.6 75.7-8.6 112.9-4 20.4-9.4 40.9-19.7 59.1-4.4 8.3-10.7 15.3-16.9 22.2-20.4 22.2-44.1 41.3-70 56.6-5.4 2.8-10.4 6.8-16.3 8.5h-2.2q-2.3-0.7-4.4-1.8c-33.4-18.1-64-42-88.5-71.1-9-10.3-15-22.8-19.7-35.5-9.7-27.4-13.9-56.4-16.4-85.3-1.8-22.6-2.6-45.4-2.3-68.1-0.2-4.1 2.5-8 6.2-9.6 4.7-1.4 9.6-1.3 14.3-2.3 33-5.8 64.3-18.4 94.2-33.1 5.6-2.6 10.8-6 16.7-7.7h2.5c1.7 0.6 3.4 1.2 5 2 34.1 17.4 69.7 32.9 107.7 39.2 5.2 1.2 11.7 0 15.7 4.5 2.5 2.4 2.8 6.1 2.7 9.5zm-9.9-3c-43.4-4.9-84-22.8-122.6-42.4-38.6 19.6-79.1 37.5-122.5 42.4-0.6 41.8 1.5 84 10.6 124.9 4.7 19.5 10.6 39.4 23.1 55.5 24.3 29.7 55.2 53.7 88.8 72 19.2-10.5 37.4-22.6 54.1-36.8 14.4-12.6 28.4-26 39.4-41.8 12.3-20 17.7-43.4 21.9-66.3 6-35.5 7.7-71.6 7.2-107.5zm-122.6-20.3c32.7 16.4 67 30.4 103 37.4-0.5 34.8-2.6 69.9-10.2 104-3.8 15.8-8.4 32-18.1 45.3-20.5 25.8-46.5 46.7-74.7 63.5-26.5-15.8-51.1-35.1-70.9-58.9-9.8-10.8-15-24.8-19-38.6-10.2-37.5-12.4-76.6-13.1-115.3 36-7 70.2-21 103-37.4z"/>
		<g id="Mask" clip-path="url(#cp2)">
			<path id="Path 6" fill-rule="evenodd" class="s4" d="m368.3 65.1c0.2 37.8-1.6 75.8-8.6 113-4.1 20.5-9.5 41-19.8 59.2-4.4 8.3-10.7 15.3-16.9 22.3-20.5 22.2-44.2 41.3-70.2 56.7-5.5 2.8-10.4 6.8-16.4 8.5h-2.1q-2.3-0.7-4.5-1.8c-33.5-18.2-64.1-42.1-88.7-71.3-9.1-10.3-15.1-22.8-19.8-35.5-9.7-27.5-13.9-56.5-16.4-85.4-1.8-22.7-2.6-45.5-2.3-68.3-0.2-4.1 2.6-7.9 6.2-9.6 4.7-1.4 9.6-1.3 14.4-2.2 33-5.8 64.4-18.5 94.4-33.2 5.6-2.6 10.8-6 16.8-7.8h2.4c1.7 0.6 3.4 1.3 5.1 2.1 34.1 17.4 69.9 32.9 107.9 39.2 5.3 1.2 11.8 0 15.8 4.5 2.5 2.5 2.8 6.2 2.7 9.6zm-9.9-3.1c-43.6-4.9-84.3-22.7-122.9-42.4-38.7 19.6-79.4 37.5-122.9 42.4-0.6 41.9 1.6 84.1 10.6 125.1 4.7 19.6 10.7 39.6 23.2 55.6 24.4 29.8 55.3 53.9 89 72.2 19.3-10.5 37.6-22.7 54.3-36.9 14.4-12.6 28.5-26 39.5-41.9 12.3-20 17.7-43.4 21.9-66.3 6.1-35.6 7.8-71.8 7.3-107.8zm-122.9-20.3c32.8 16.4 67.1 30.5 103.2 37.5-0.5 34.9-2.6 70-10.2 104.1-3.8 15.9-8.4 32.1-18.2 45.4-20.5 25.8-46.6 46.8-74.8 63.6-26.6-15.8-51.2-35.2-71.1-58.9-9.9-10.9-15.1-24.9-19.1-38.8-10.2-37.5-12.4-76.7-13.2-115.4 36.2-7 70.5-21.1 103.4-37.5z"/>
		</g>
		<path id="Path 9" class="s3" d="m160.2 134.1c10.6-19.4 73.3 13.2 78.9 39.1 0 0 86.6-126 161.7-138.5-22.9 3.8-73.1 68.4-105.5 111.6-29 38.8-52.2 87-66 84.3-11.1-2.1-21.8-67.6-69.1-96.5z"/>
		<path id="Path 10" class="s5" d="m153.4 134.1c10.7-19.4 73.4 13.2 78.9 39.1 0 0 86.6-126 161.7-138.5-22.9 3.8-73.1 68.4-105.5 111.6-29 38.8-52.2 87-66 84.3-11-2.1-21.7-67.6-69.1-96.5z"/>
	</g>
</svg>