<svg width="50" height="50" viewBox="0 0 50 50" fill="none" xmlns="http://www.w3.org/2000/svg">
<path d="M25.0002 33.9286C24.3011 33.9289 23.6172 33.724 23.0335 33.3393C22.4497 32.9545 21.9917 32.4069 21.7163 31.7644C21.1401 31.6283 20.5729 31.4565 20.0181 31.2501L19.9877 31.2394C18.3584 30.6278 16.8545 29.7237 15.5502 28.5715C13.8027 27.0299 12.4588 25.0842 11.6358 22.9041C10.8127 20.724 10.5355 18.3757 10.8282 16.0638C11.1209 13.752 11.9748 11.5469 13.3153 9.64072C14.6558 7.73457 16.4422 6.18529 18.5188 5.12795C20.5954 4.07061 22.8992 3.53732 25.2292 3.57458C27.5592 3.61184 29.8447 4.21852 31.8864 5.34172C33.9282 6.46492 35.6642 8.07054 36.943 10.0186C38.2219 11.9666 39.0048 14.1979 39.2234 16.5179C39.2931 17.2554 38.6877 17.8572 37.9466 17.8572C37.2074 17.8572 36.6163 17.2554 36.5306 16.5197C36.2945 14.4899 35.5267 12.5583 34.3048 10.9204C33.083 9.28237 31.4503 7.996 29.5719 7.19128C27.6935 6.38657 25.6359 6.09203 23.6072 6.33744C21.5785 6.58285 19.6505 7.35951 18.0182 8.58891C16.3858 9.81831 15.107 11.4569 14.3109 13.339C13.5149 15.2211 13.2298 17.28 13.4845 19.3075C13.7393 21.3351 14.5248 23.2595 15.7617 24.8862C16.9986 26.5128 18.643 27.7841 20.5288 28.5715L20.6002 28.6019C20.9574 28.7483 21.324 28.8774 21.7002 28.9894C22.0442 28.1512 22.6939 27.4751 23.5177 27.098C24.3415 26.7209 25.2778 26.671 26.1371 26.9584C26.9963 27.2458 27.7142 27.849 28.1453 28.6458C28.5765 29.4427 28.6886 30.3736 28.4591 31.2501C28.2612 32.0168 27.8139 32.6961 27.1878 33.181C26.5617 33.6658 25.7921 33.9288 25.0002 33.9286ZM12.5002 31.2501H14.5877C13.5893 30.4719 12.6802 29.5855 11.877 28.6072C10.5729 28.76 9.37034 29.3863 8.49764 30.3673C7.62494 31.3483 7.1429 32.6156 7.14307 33.9286V35.2054C7.14307 41.8447 14.6609 46.4286 25.0002 46.4286C35.3395 46.4286 42.8574 41.5929 42.8574 35.2054V33.9286C42.8574 32.5078 42.2929 31.1452 41.2883 30.1406C40.2836 29.1359 38.921 28.5715 37.5002 28.5715H30.9913C31.2501 29.4396 31.3171 30.3535 31.1877 31.2501H37.5002L37.7591 31.2626C38.4216 31.3269 39.0364 31.6356 39.4837 32.1284C39.931 32.6213 40.1788 33.2631 40.1788 33.9286V35.2054L40.1699 35.4929C39.9199 39.9929 33.7966 43.7501 25.0002 43.7501C15.8734 43.7501 9.82164 39.9804 9.82164 35.2054V33.9286L9.83414 33.6697C9.89848 33.0072 10.2072 32.3925 10.7 31.9452C11.1929 31.4978 11.8346 31.2501 12.5002 31.2501ZM33.9288 17.8572C33.9291 19.4747 33.49 21.0618 32.6584 22.4492C31.8268 23.8365 30.634 24.9719 29.2074 25.734C28.0564 24.6869 26.5562 24.1069 25.0002 24.1072C25.821 24.1072 26.6337 23.9456 27.392 23.6315C28.1503 23.3174 28.8393 22.857 29.4196 22.2766C30 21.6963 30.4604 21.0073 30.7745 20.249C31.0885 19.4907 31.2502 18.678 31.2502 17.8572C31.2502 17.0365 31.0885 16.2237 30.7745 15.4654C30.4604 14.7072 30 14.0182 29.4196 13.4378C28.8393 12.8574 28.1503 12.3971 27.392 12.083C26.6337 11.7689 25.821 11.6072 25.0002 11.6072C23.3426 11.6072 21.7529 12.2657 20.5808 13.4378C19.4087 14.6099 18.7502 16.1996 18.7502 17.8572C18.7502 19.5148 19.4087 21.1045 20.5808 22.2766C21.7529 23.4487 23.3426 24.1072 25.0002 24.1072C23.3788 24.1072 21.9038 24.7251 20.7949 25.7358C19.3689 24.9742 18.1765 23.8398 17.3449 22.4536C16.6368 21.274 16.2109 19.9466 16.1004 18.5751C15.99 17.2037 16.198 15.8253 16.7083 14.5475C17.2185 13.2697 18.0171 12.1271 19.0418 11.209C20.0665 10.2908 21.2896 9.62183 22.6155 9.25434C23.9414 8.88685 25.3342 8.83076 26.6854 9.09045C28.0366 9.35014 29.3094 9.91857 30.4046 10.7514C31.4998 11.5842 32.3878 12.6589 32.9991 13.8915C33.6104 15.1241 33.9286 16.4813 33.9288 17.8572Z" fill="#424242"/>
</svg>
