<svg width="24" height="24" viewBox="0 0 24 24" fill="none" xmlns="http://www.w3.org/2000/svg">
<path opacity="0.5" d="M14 11C14 10.7348 14.1054 10.4804 14.2929 10.2929C14.4804 10.1054 14.7348 10 15 10C15.2652 10 15.5196 10.1054 15.7071 10.2929C15.8946 10.4804 16 10.7348 16 11V13C16 13.2652 15.8946 13.5196 15.7071 13.7071C15.5196 13.8946 15.2652 14 15 14C14.7348 14 14.4804 13.8946 14.2929 13.7071C14.1054 13.5196 14 13.2652 14 13V11Z" stroke="white" stroke-width="1.5"/>
<path d="M14.0139 17L14.7639 17.002V17H14.0139ZM14.0139 7H14.7639V6.998L14.0139 7ZM14.7579 19.005L14.7639 17.002L13.2639 16.998L13.2579 19.001L14.7579 19.005ZM15.0159 16.75C15.1569 16.75 15.2689 16.864 15.2689 17H16.7689C16.7689 16.032 15.9819 15.25 15.0159 15.25V16.75ZM15.0159 15.25C14.0499 15.25 13.2639 16.032 13.2639 17H14.7639C14.7639 16.864 14.8749 16.75 15.0159 16.75V15.25ZM9.99489 4.75H13.5049V3.25H9.99489V4.75ZM13.0079 19.25H9.99489V20.75H13.0079V19.25ZM9.99489 19.25C8.08389 19.25 6.72489 19.248 5.69489 19.11C4.68489 18.975 4.10389 18.721 3.67889 18.297L2.61989 19.36C3.36989 20.108 4.32189 20.44 5.49589 20.598C6.64989 20.753 8.12589 20.751 9.99589 20.751L9.99489 19.25ZM9.99489 3.25C8.12489 3.25 6.64889 3.248 5.49489 3.403C4.32089 3.561 3.36989 3.893 2.61989 4.641L3.67989 5.703C4.10389 5.279 4.68589 5.025 5.69489 4.89C6.72489 4.752 8.08389 4.75 9.99489 4.75V3.25ZM2.58689 10.909C2.97289 11.124 3.22989 11.533 3.22989 12H4.72989C4.72981 11.5105 4.59909 11.0299 4.35122 10.6079C4.10336 10.1858 3.74732 9.83751 3.31989 9.599L2.58689 10.909ZM2.75989 9.02C2.83789 7.164 3.09089 6.289 3.67989 5.703L2.61989 4.641C1.58989 5.669 1.33989 7.08 1.25989 8.958L2.75989 9.02ZM3.22989 12C3.22989 12.467 2.97289 12.876 2.58689 13.092L3.31889 14.402C3.74666 14.1635 4.10299 13.8152 4.35105 13.3929C4.5991 12.9706 4.72989 12.4897 4.72989 12H3.22989ZM1.26089 15.042C1.34089 16.918 1.59089 18.332 2.61989 19.359L3.67989 18.297C3.09089 17.711 2.83789 16.835 2.75989 14.979L1.26089 15.042ZM20.7699 12C20.7699 11.533 21.0269 11.124 21.4129 10.909L20.6809 9.599C20.2533 9.83738 19.897 10.1856 19.649 10.6077C19.4009 11.0298 19.2701 11.5104 19.2699 12H20.7699ZM22.7389 8.958C22.6589 7.082 22.4089 5.668 21.3799 4.641L20.3199 5.703C20.9079 6.289 21.1619 7.165 21.2399 9.021L22.7389 8.958ZM21.4129 13.092C21.2181 12.9838 21.0558 12.8255 20.9428 12.6335C20.8297 12.4415 20.77 12.2228 20.7699 12H19.2699C19.2699 13.034 19.8409 13.932 20.6809 14.401L21.4129 13.092ZM21.2399 14.979C21.1619 16.835 20.9089 17.711 20.3199 18.297L21.3799 19.359C22.4099 18.332 22.6599 16.919 22.7389 15.042L21.2399 14.979ZM20.6809 14.401C20.9649 14.56 21.1509 14.664 21.2759 14.743C21.3379 14.782 21.3659 14.803 21.3739 14.809C21.3879 14.821 21.3369 14.785 21.2889 14.699L22.5989 13.966C22.5297 13.846 22.4384 13.7401 22.3299 13.654C22.2492 13.5886 22.1644 13.5284 22.0759 13.474C21.9089 13.368 21.6799 13.241 21.4129 13.091L20.6809 14.401ZM22.7389 15.042C22.7459 14.871 22.7539 14.694 22.7479 14.546C22.7437 14.3436 22.6924 14.145 22.5979 13.966L21.2889 14.698C21.2389 14.608 21.2459 14.546 21.2489 14.612C21.2502 14.6387 21.2502 14.6833 21.2489 14.746L21.2399 14.979L22.7389 15.042ZM21.4129 10.909C21.6799 10.759 21.9089 10.632 22.0759 10.526C22.1636 10.4704 22.2484 10.4104 22.3299 10.346C22.438 10.2598 22.529 10.1539 22.5979 10.034L21.2889 9.302C21.3369 9.215 21.3879 9.179 21.3729 9.191C21.3419 9.21488 21.3095 9.23692 21.2759 9.257C21.1509 9.337 20.9659 9.44 20.6809 9.599L21.4129 10.909ZM21.2399 9.021L21.2489 9.253C21.2502 9.31567 21.2502 9.36033 21.2489 9.387C21.2459 9.453 21.2389 9.391 21.2889 9.301L22.5989 10.033C22.693 9.8539 22.744 9.6553 22.7479 9.453C22.7514 9.2876 22.7481 9.12213 22.7379 8.957L21.2399 9.021ZM2.58689 13.091C2.31989 13.241 2.09089 13.367 1.92389 13.473C1.83542 13.5274 1.75057 13.5876 1.66989 13.653C1.56173 13.7392 1.47081 13.8461 1.40189 13.966L2.71089 14.697C2.66289 14.784 2.61189 14.82 2.62589 14.808C2.63489 14.801 2.66189 14.781 2.72389 14.742C2.84889 14.662 3.03389 14.559 3.31889 14.4L2.58689 13.091ZM2.75989 14.978L2.75089 14.745C2.74939 14.7003 2.74939 14.6557 2.75089 14.611C2.75389 14.545 2.76089 14.607 2.71089 14.697L1.40089 13.965C1.30676 14.1441 1.25574 14.3427 1.25189 14.545C1.24589 14.693 1.25389 14.87 1.26189 15.041L2.75989 14.978ZM3.31889 9.598C3.03489 9.439 2.84889 9.335 2.72389 9.256C2.68995 9.23595 2.65723 9.21391 2.62589 9.19C2.61189 9.178 2.66289 9.214 2.71089 9.3L1.40089 10.033C1.48489 10.181 1.59589 10.283 1.66989 10.345C1.74989 10.411 1.83889 10.471 1.92389 10.525C2.09089 10.631 2.31989 10.758 2.58689 10.908L3.31889 9.598ZM1.25989 8.958C1.25289 9.129 1.24489 9.306 1.25089 9.454C1.25789 9.604 1.28089 9.821 1.40089 10.034L2.71089 9.302C2.76089 9.392 2.75289 9.454 2.74989 9.388C2.74839 9.34335 2.74839 9.29866 2.74989 9.254L2.75889 9.021L1.25989 8.958ZM14.7629 6.998L14.7549 4.496L13.2559 4.501L13.2629 7.002L14.7629 6.998ZM15.0149 7.25C14.9819 7.25027 14.9492 7.24399 14.9186 7.23155C14.888 7.2191 14.8602 7.20073 14.8368 7.17749C14.8134 7.15425 14.7948 7.1266 14.7821 7.09614C14.7694 7.06567 14.7629 7.033 14.7629 7H13.2629C13.2629 7.968 14.0489 8.75 15.0149 8.75V7.25ZM15.2699 7C15.2699 7.136 15.1579 7.25 15.0169 7.25V8.75C15.9829 8.75 16.7699 7.968 16.7699 7H15.2699ZM15.2699 4.516V7H16.7699V4.516H15.2699ZM16.5099 4.769C18.6979 4.825 19.6789 5.061 20.3219 5.703L21.3819 4.641C20.2689 3.531 18.6949 3.325 16.5479 3.269L16.5099 4.769ZM16.7699 4.516C16.7699 4.656 16.6539 4.772 16.5099 4.769L16.5479 3.269C16.3815 3.26486 16.216 3.29406 16.0612 3.35488C15.9063 3.41569 15.7651 3.50689 15.646 3.6231C15.5269 3.7393 15.4323 3.87817 15.3677 4.03152C15.3031 4.18487 15.2698 4.3496 15.2699 4.516H16.7699ZM13.5049 4.75C13.4388 4.74974 13.3764 4.72328 13.3298 4.67643C13.2831 4.62957 13.2569 4.56613 13.2569 4.5L14.7569 4.496C14.7558 4.16517 14.6237 3.84826 14.3894 3.6147C14.1551 3.38115 13.8377 3.25 13.5069 3.25L13.5049 4.75ZM17.0649 20.714C18.9399 20.634 20.3539 20.384 21.3809 19.359L20.3199 18.297C19.7339 18.883 18.8569 19.137 17.0029 19.215L17.0649 20.714ZM15.2699 17V18.977H16.7699V17H15.2699ZM13.2589 19C13.2589 19.121 13.2589 19.214 13.2559 19.293C13.2539 19.373 13.2499 19.419 13.2459 19.448C13.2419 19.477 13.2409 19.467 13.2519 19.438C13.2713 19.3953 13.298 19.3564 13.3309 19.323L14.3899 20.385C14.5826 20.1858 14.703 19.9277 14.7319 19.652C14.7589 19.455 14.7569 19.219 14.7579 19.005L13.2589 19ZM13.0079 20.75C13.2219 20.75 13.4589 20.752 13.6559 20.725C13.8749 20.695 14.1539 20.62 14.3899 20.385L13.3299 19.323C13.364 19.2903 13.4036 19.2639 13.4469 19.245C13.4749 19.233 13.4849 19.235 13.4569 19.238C13.405 19.2434 13.353 19.2467 13.3009 19.248C13.2209 19.25 13.1279 19.25 13.0079 19.25V20.75ZM17.0029 19.215C16.8829 19.22 16.7899 19.224 16.7109 19.225C16.6319 19.226 16.5859 19.225 16.5589 19.222C16.5319 19.219 16.5439 19.217 16.5739 19.229C16.6109 19.243 16.6539 19.269 16.6929 19.305L15.6549 20.388C15.8989 20.622 16.1839 20.692 16.4119 20.714C16.6139 20.734 16.8509 20.723 17.0649 20.714L17.0029 19.215ZM15.2699 18.977C15.2699 19.195 15.2679 19.437 15.2959 19.64C15.3269 19.866 15.4079 20.151 15.6549 20.388L16.6929 19.305C16.7329 19.343 16.7589 19.386 16.7749 19.422C16.7869 19.452 16.7849 19.462 16.7819 19.434C16.7764 19.3812 16.7731 19.3281 16.7719 19.275C16.7699 19.195 16.7699 19.1 16.7699 18.977H15.2699Z" fill="white"/>
</svg>
