<svg width="17" height="16" viewBox="0 0 17 16" fill="none" xmlns="http://www.w3.org/2000/svg">
<path d="M5.24318 7.47969C5.75293 7.47969 6.22024 7.24294 6.59825 6.87917C6.20176 6.16817 5.97542 5.36379 5.97542 4.59194C5.97542 3.93737 6.13333 3.31993 6.41126 2.77473C6.06654 2.56335 5.66364 2.43945 5.23147 2.43945C3.96824 2.43945 2.94434 3.4782 2.94434 4.7594C2.94434 6.04078 3.97995 7.47969 5.24318 7.47969Z" fill="#CB3CFF"/>
<path d="M6.7814 8.57994C6.55817 8.53178 6.32708 8.50513 6.08959 8.50513H4.38869C2.57875 8.50513 1.11133 9.97713 1.11133 11.793L1.11901 12.1818C1.11901 12.6892 1.52905 13.1005 2.03478 13.1005H3.71189C3.79422 11.0802 5.03238 9.35785 6.7814 8.57994Z" fill="#CB3CFF"/>
<path d="M9.92374 7.9646C11.49 7.9646 12.7453 6.18029 12.7453 4.59157C12.7453 3.00284 11.4755 1.71484 9.90928 1.71484C8.34306 1.71484 7.07324 3.00284 7.07324 4.59157C7.07343 6.18029 8.35751 7.9646 9.92374 7.9646Z" fill="#CB3CFF"/>
<path d="M15.0369 13.3136C15.0369 11.0619 13.2175 9.23657 10.9732 9.23657H8.86407C6.61975 9.23657 4.80029 11.0619 4.80029 13.3136L4.80999 13.7958C4.80999 14.4248 5.31828 14.9349 5.9455 14.9349H13.9113C14.5383 14.9349 15.0468 14.4248 15.0468 13.7958L15.0369 13.3136Z" fill="#CB3CFF"/>
</svg>
